<svg width="651" height="626" viewBox="0 0 651 626" fill="none" xmlns="http://www.w3.org/2000/svg">
<path fill-rule="evenodd" clip-rule="evenodd" d="M438.94 127.708C436.807 128.103 434.06 128.278 431.163 128.222C434.063 128.273 436.822 128.096 438.94 127.708ZM425.94 127.878C424.627 127.731 423.159 127.516 421.68 127.262C423.177 127.528 424.645 127.736 425.94 127.878ZM355 139.5C344.965 139.814 337.489 140.093 327.45 140.298C315.645 140.532 303.331 140.914 294.652 141.293C289.988 141.497 286.373 141.7 284.45 141.878C281.552 142.141 277.117 142.463 272.403 142.763C267.876 143.042 263.206 143.302 259.44 143.478C258.154 143.538 256.879 143.607 255.631 143.687C249.412 144.068 244.204 144.608 243.2 145.008L241.193 145.793C241.107 145.824 241.022 145.856 240.94 145.888L241.69 169.828C242.39 192.128 242.5 195 242.5 195C242.5 195 250.82 191.668 254.95 190.408C259.07 189.148 266.95 187.178 272.45 186.028C277.95 184.878 287.73 183.248 294.2 182.408C300.66 181.578 311.8 180.888 318.95 180.888C326.1 180.888 336.33 181.368 341.7 181.958C347.06 182.548 355.95 183.918 361.45 184.988C366.95 186.068 376.28 188.278 382.2 189.918C388.11 191.548 395.65 194.008 398.95 195.388L404.99 198.388C404.99 198.388 406.977 168.934 404.99 152.5C404.392 147.55 403 143.388 403 143.388L393.737 142.749C371.118 141.153 362.74 139.888 362.74 139.888C362.74 139.888 357.346 139.635 355 139.5ZM252.86 114.648C253.825 113.709 254.808 112.702 255.727 111.721C255.076 112.462 254.397 113.185 253.69 113.888C252.725 114.847 251.573 115.883 250.357 116.902C251.261 116.137 252.114 115.372 252.86 114.648ZM250.357 116.902C247.653 119.19 244.502 121.466 242.44 122.568C239.69 124.038 235.19 125.828 232.44 126.548C235.19 125.828 239.85 123.918 242.8 122.318C244.809 121.218 247.733 119.1 250.357 116.902ZM280.09 136.048C279.291 135.651 278.395 135.14 277.469 134.562C278.485 135.167 279.511 135.738 280.44 136.208C280.675 136.326 280.92 136.444 281.172 136.562C280.797 136.391 280.435 136.219 280.09 136.048ZM289.44 139.418C287.498 139.082 283.99 137.851 281.172 136.562C283.869 137.828 287.428 139.07 289.44 139.418ZM303.44 137.508C302.34 138.268 299.64 139.168 297.44 139.508C299.64 139.168 302.34 138.258 303.44 137.488C303.806 137.229 304.095 137.015 304.292 136.83C304.114 137.024 303.822 137.243 303.44 137.508ZM299.69 134.508C300.57 134.754 301.311 134.965 301.929 135.152C301.628 135.07 301.299 134.982 300.94 134.888C300.573 134.792 300.153 134.661 299.69 134.508ZM123.37 429.218C122.24 427.668 119.76 425.608 117.87 424.648C115.99 423.688 112.87 422.938 110.95 422.988C109.02 423.038 106.1 423.458 104.45 423.918C102.8 424.388 98.4996 426.478 95.5 429.218C91.793 432.603 90.1203 435.106 88.5 440C87.2205 443.865 86.6714 445.094 86.5 448.5C86.3668 451.147 86.3882 452.708 87.1093 455.258C87.6498 457.169 88.5138 458.852 89.1571 459.913C89.2491 460.064 89.3466 460.225 89.4505 460.398C90.2705 461.768 92.7505 463.798 94.9505 464.898C97.1505 465.998 100.41 466.898 102.2 466.908C104.06 466.918 107.37 465.718 109.95 464.088C112.42 462.538 115.76 459.718 117.36 457.828C118.96 455.938 121.41 451.918 122.82 448.898C124.58 445.098 125.38 441.638 125.41 437.718C125.44 433.508 124.91 431.308 123.37 429.218ZM447.42 443.128C446.33 441.338 445.17 439.878 444.84 439.878C444.5 439.888 442.48 442.478 440.34 445.638C438.2 448.798 432.17 455.618 426.95 460.798C421.72 465.968 414.97 471.788 411.95 473.738C408.92 475.678 403.3 478.708 399.45 480.488C395.6 482.258 390.53 484.198 388.2 484.798C385.86 485.398 384.17 486.348 384.45 486.898C384.77 487.538 404.04 487.898 439.2 487.908C469.03 487.918 493.95 488.258 494.57 488.658C495.19 489.068 496.99 491.518 498.57 494.128C500.15 496.728 518.951 526.398 518.951 526.398L565.201 519.998L557.201 507.508C557.201 507.508 547.271 494.148 545.331 491.398C543.401 488.648 526.6 468.578 526.6 468.578C526.6 468.578 521.401 470.428 516.451 472.458C507.521 476.108 507.35 476.138 495.95 475.698C484.87 475.278 484.19 475.118 477.45 471.428C473.6 469.318 468.24 465.968 465.54 463.988C462.84 462.018 458.1 457.248 455.01 453.398C451.92 449.548 448.51 444.928 447.42 443.128ZM467.56 513.018C469.14 510.068 471.72 506.588 473.27 505.268C474.83 503.958 476.63 502.888 477.27 502.898C477.92 502.908 480.69 503.978 483.44 505.278C486.19 506.578 489.85 509.158 491.58 511.018C493.3 512.868 496.56 517.428 498.83 521.138C501.63 525.738 502.54 528.028 501.69 528.338C501 528.588 497.96 529.498 494.94 530.358C491.91 531.218 487.671 532.928 485.5 534.158C483.33 535.378 480.77 537.738 479.81 539.388C478.86 541.038 477.141 545.988 476 550.388C474.86 554.788 473.93 560.638 473.94 563.388C473.951 566.528 474.84 570.248 476.32 573.388C477.61 576.138 479.75 579.388 481.06 580.618C482.37 581.848 486.141 583.958 489.44 585.318C492.74 586.668 495.891 588.448 496.44 589.268C497.12 590.288 497.04 592.058 496.19 594.828C495.5 597.058 493.25 600.648 491.19 602.798C489.13 604.948 486.09 607.028 484.44 607.408C482.79 607.788 480.43 607.828 479.19 607.498C477.951 607.158 475.701 605.828 474.19 604.538C472.68 603.248 469.94 599.088 468.1 595.288C466.27 591.498 463.89 584.788 462.82 580.388C461.75 575.988 460.61 566.988 460.27 560.388C459.91 553.288 460.15 544.098 460.86 537.888C461.52 532.118 462.65 525.368 463.37 522.888C464.09 520.408 465.97 515.978 467.56 513.018ZM328 505C328 505 352.271 503.888 392.94 503.888C433.94 503.888 456 505 456 505C456 505 453.69 511.959 452.5 516.5C449.604 527.555 448.48 538.238 447.82 545.388C446.78 556.548 446.85 560.298 448.28 571.888C449.19 579.308 450.66 587.868 451.55 590.888C452.44 593.908 454.57 599.088 456.3 602.388C458.02 605.688 459.54 608.618 459.68 608.888C459.82 609.158 393.9 609.338 313.19 609.288C232.48 609.228 164.98 608.898 163.19 608.538C161.08 608.118 158.91 606.568 157.02 604.138C155.41 602.078 152.32 596.118 150.15 590.888C147.98 585.658 145.71 579.138 145.11 576.388C144.51 573.638 143.55 568.128 142.98 564.138C142.41 560.148 141.94 552.388 141.94 546.888C141.94 541.388 142.41 534.528 142.99 531.638C143.56 528.748 144.22 525.488 144.45 524.388C144.84 522.548 145.83 522.858 157.16 528.398C165.76 532.608 172.81 535.228 180.69 537.148C186.88 538.658 196.1 540.328 201.19 540.868C206.28 541.408 213.7 541.858 217.69 541.868C221.68 541.878 230.23 541.198 236.69 540.358C243.15 539.518 253.16 537.928 258.94 536.838C264.71 535.738 273.04 533.678 277.44 532.248C281.84 530.818 290.84 527.038 297.44 523.838C304.04 520.638 312.25 516.188 315.69 513.948C319.13 511.718 328 505 328 505ZM115.31 521.888C116.32 517.218 117.77 511.908 118.54 510.108L119.93 506.828L124.95 510.108C128.98 512.738 129.85 513.788 129.35 515.388C129 516.488 128.49 525.488 128.23 535.388C127.82 550.638 128.05 555.068 129.77 564.388C130.89 570.438 133.37 580.338 135.28 586.388C137.2 592.438 139.25 598.628 139.85 600.138C140.45 601.648 140.94 603.118 140.94 603.388C140.94 603.658 139.48 603.008 137.69 601.938C135.9 600.858 132.55 598.048 130.24 595.688C127.8 593.188 124.36 587.818 122.04 582.888C119.84 578.218 117.04 570.338 115.8 565.388C114.06 558.438 113.54 553.438 113.51 543.388C113.48 534.388 114.04 527.768 115.31 521.888Z" fill="#AAB6BC"/>
<path fill-rule="evenodd" clip-rule="evenodd" d="M281.172 136.562C280.92 136.444 280.675 136.326 280.44 136.208C279.511 135.738 278.485 135.167 277.469 134.562C278.395 135.14 279.291 135.651 280.09 136.048C280.435 136.219 280.797 136.391 281.172 136.562Z" fill="#483E4B"/>
<path d="M467.56 513.018C469.14 510.068 471.72 506.588 473.27 505.268C474.83 503.958 476.63 502.888 477.27 502.898C477.92 502.908 480.69 503.978 483.44 505.278C486.19 506.578 489.85 509.158 491.58 511.018C493.3 512.868 496.56 517.428 498.83 521.138C501.63 525.738 502.54 528.028 501.69 528.338C501 528.588 497.96 529.498 494.94 530.358C491.91 531.218 487.671 532.928 485.5 534.158C483.33 535.378 480.77 537.738 479.81 539.388C478.86 541.038 477.141 545.988 476 550.388C474.86 554.788 473.93 560.638 473.94 563.388C473.951 566.528 474.84 570.248 476.32 573.388C477.61 576.138 479.75 579.388 481.06 580.618C482.37 581.848 486.141 583.958 489.44 585.318C492.74 586.668 495.891 588.448 496.44 589.268C497.12 590.288 497.04 592.058 496.19 594.828C495.5 597.058 493.25 600.648 491.19 602.798C489.13 604.948 486.09 607.028 484.44 607.408C482.79 607.788 480.43 607.828 479.19 607.498C477.951 607.158 475.701 605.828 474.19 604.538C472.68 603.248 469.94 599.088 468.1 595.288C466.27 591.498 463.89 584.788 462.82 580.388C461.75 575.988 460.61 566.988 460.27 560.388C459.91 553.288 460.15 544.098 460.86 537.888C461.52 532.118 462.65 525.368 463.37 522.888C464.09 520.408 465.97 515.978 467.56 513.018Z" fill="#E98140"/>
<path d="M328 505C328 505 352.271 503.888 392.94 503.888C433.94 503.888 456 505 456 505C456 505 453.69 511.959 452.5 516.5C449.604 527.555 448.48 538.238 447.82 545.388C446.78 556.548 446.85 560.298 448.28 571.888C449.19 579.308 450.66 587.868 451.55 590.888C452.44 593.908 454.57 599.088 456.3 602.388C458.02 605.688 459.54 608.618 459.68 608.888C459.82 609.158 393.9 609.338 313.19 609.288C232.48 609.228 164.98 608.898 163.19 608.538C161.08 608.118 158.91 606.568 157.02 604.138C155.41 602.078 152.32 596.118 150.15 590.888C147.98 585.658 145.71 579.138 145.11 576.388C144.51 573.638 143.55 568.128 142.98 564.138C142.41 560.148 141.94 552.388 141.94 546.888C141.94 541.388 142.41 534.528 142.99 531.638C143.56 528.748 144.22 525.488 144.45 524.388C144.84 522.548 145.83 522.858 157.16 528.398C165.76 532.608 172.81 535.228 180.69 537.148C186.88 538.658 196.1 540.328 201.19 540.868C206.28 541.408 213.7 541.858 217.69 541.868C221.68 541.878 230.23 541.198 236.69 540.358C243.15 539.518 253.16 537.928 258.94 536.838C264.71 535.738 273.04 533.678 277.44 532.248C281.84 530.818 290.84 527.038 297.44 523.838C304.04 520.638 312.25 516.188 315.69 513.948C319.13 511.718 328 505 328 505Z" fill="#E98140"/>
<path d="M115.31 521.888C116.32 517.218 117.77 511.908 118.54 510.108L119.93 506.828L124.95 510.108C128.98 512.738 129.85 513.788 129.35 515.388C129 516.488 128.49 525.488 128.23 535.388C127.82 550.638 128.05 555.068 129.77 564.388C130.89 570.438 133.37 580.338 135.28 586.388C137.2 592.438 139.25 598.628 139.85 600.138C140.45 601.648 140.94 603.118 140.94 603.388C140.94 603.658 139.48 603.008 137.69 601.938C135.9 600.858 132.55 598.048 130.24 595.688C127.8 593.188 124.36 587.818 122.04 582.888C119.84 578.218 117.04 570.338 115.8 565.388C114.06 558.438 113.54 553.438 113.51 543.388C113.48 534.388 114.04 527.768 115.31 521.888Z" fill="#E98140"/>
<path d="M490.44 220.838C492.64 220.118 496.92 218.968 499.94 218.258C503.47 217.448 510.63 217.098 519.94 217.298C531.01 217.538 536.331 218.138 542.44 219.808C546.84 221.008 553.36 223.348 556.94 225.008C560.521 226.658 567.831 230.908 573.19 234.448C578.55 237.988 582.71 241.118 582.44 241.388C582.171 241.658 578.23 240.518 573.69 238.838C569.151 237.168 560.71 234.638 554.94 233.218C547.171 231.318 541.71 230.628 533.94 230.598C525.041 230.558 522.22 230.968 515.44 233.288C511.04 234.788 504.29 237.968 500.44 240.348C496.35 242.878 489.91 248.378 484.94 253.578C480.18 258.568 474.38 265.988 471.76 270.438C469.18 274.808 466.12 280.638 464.95 283.388C463.78 286.138 461.52 292.658 459.93 297.888C458.33 303.118 456.56 310.878 455.99 315.138C455.41 319.398 454.97 329.298 455.01 337.138C455.05 344.978 455.45 353.868 455.89 356.888C456.33 359.908 456.521 362.498 456.31 362.638C456.11 362.778 454.87 360.748 453.55 358.138C452.24 355.528 449.56 348.658 447.6 342.888C445.64 337.118 443.12 327.778 441.99 322.138C440.55 314.958 439.94 307.998 439.94 298.888C439.94 289.278 440.48 283.608 441.99 277.138C443.12 272.328 445.65 265.238 447.6 261.388C449.56 257.538 453.24 251.458 455.78 247.888C458.32 244.318 463.13 238.688 466.46 235.388C469.9 231.988 475.55 227.818 479.49 225.758C483.31 223.768 488.24 221.548 490.44 220.838Z" fill="#483E4B"/>
<path d="M217.69 266.298C219.2 265.978 220.89 265.538 221.44 265.328C221.99 265.118 224.46 265.158 226.94 265.428C229.42 265.688 233.69 266.988 236.44 268.308C239.19 269.628 242.9 272.328 244.69 274.298C246.48 276.268 247.94 278.448 247.93 279.138C247.92 280.068 244.26 280.458 233.68 280.658C225.85 280.808 217.87 281.338 215.94 281.838C214.01 282.348 210 284.928 201.6 292.388L202.33 287.888C202.74 285.408 204.05 281.178 205.25 278.488C206.46 275.788 209.13 272.078 211.19 270.238C213.25 268.398 216.18 266.628 217.69 266.298Z" fill="#483E4B"/>
<path d="M372.25 270.118C373.79 269.278 376.26 268.238 377.75 267.818C379.23 267.408 382.46 267.018 384.94 266.958C387.42 266.898 391.02 267.388 392.94 268.028C394.86 268.678 398.24 270.418 400.44 271.888C402.64 273.368 405.88 276.788 407.64 279.488C409.4 282.178 411.54 286.408 412.39 288.888C413.24 291.368 413.82 293.468 413.69 293.568C413.55 293.658 410.74 291.698 407.44 289.198C404.14 286.708 399.86 283.928 397.94 283.038C395.34 281.838 390.201 281.288 361.49 280.388L365.46 276.018C367.65 273.618 370.7 270.958 372.25 270.118Z" fill="#483E4B"/>
<path d="M268.44 365.048C271.19 363.068 276.37 360.408 279.94 359.128C284.93 357.348 287.84 356.918 292.44 357.268C295.74 357.518 300.8 358.438 303.69 359.308C307.4 360.428 310.63 362.458 314.69 366.258C317.85 369.208 321.12 372.808 321.94 374.248C322.76 375.688 323.1 377.098 322.69 377.378C322.28 377.658 320.48 376.788 318.69 375.448C316.9 374.108 313.64 372.248 311.44 371.318C309.24 370.388 304.96 369.018 301.94 368.288C298.92 367.558 293.85 366.948 290.69 366.928C287.53 366.908 280.55 367.768 275.19 368.848C269.83 369.928 264.4 371.138 263.13 371.538C261.04 372.198 260.94 372.098 262.13 370.458C262.85 369.458 265.69 367.028 268.44 365.048Z" fill="#483E4B"/>
<path d="M256.69 407.678C258.75 406.468 262.92 404.688 265.94 403.738C269.33 402.658 274.8 401.978 280.19 401.938C285 401.908 291.08 402.338 293.69 402.888C296.3 403.438 300.58 405.238 303.19 406.888C305.8 408.538 309.06 411.578 310.43 413.638C311.79 415.698 313.87 419.868 317.17 428.388L312.67 423.888C310.19 421.408 305.53 418.078 302.3 416.488C299.08 414.888 294.19 412.958 291.44 412.188C288.69 411.428 281.26 410.548 274.94 410.228C268.62 409.918 261.09 410.048 258.21 410.528C255.33 410.998 252.97 411.048 252.96 410.638C252.95 410.228 254.63 408.898 256.69 407.678Z" fill="#483E4B"/>
<path d="M243.69 439.308C245.75 438.988 247.89 438.608 248.44 438.468C248.99 438.328 251.24 438.388 253.44 438.608C255.64 438.818 260.37 439.838 263.94 440.878C267.51 441.908 273.14 444.538 276.44 446.708C279.74 448.878 283.62 452.168 285.07 454.028C286.51 455.878 288.76 459.508 290.07 462.108C291.37 464.698 292.21 467.058 291.94 467.338C291.67 467.628 288.85 465.388 285.69 462.368C282.53 459.358 276.68 454.728 272.69 452.098C268.7 449.458 262.51 446.298 258.94 445.068C255.37 443.838 249.8 442.498 246.58 442.108C243.36 441.708 240.55 441.048 240.33 440.638C240.12 440.228 241.63 439.628 243.69 439.308Z" fill="#483E4B"/>
<path d="M225.67 468.078C223.05 466.048 220.92 464.048 220.92 463.638C220.93 463.228 221.17 462.888 221.44 462.888C221.71 462.888 224.72 464.348 228.11 466.138C231.5 467.928 236.59 471.638 239.41 474.388C242.24 477.138 245.52 481.408 246.72 483.888C247.91 486.368 249.18 489.968 249.54 491.888C250.17 495.258 250.04 495.168 245.92 489.388C243.57 486.088 239.13 480.778 236.04 477.578C232.96 474.378 228.3 470.108 225.67 468.078Z" fill="#483E4B"/>
<path d="M96.4405 544.448C77.8405 541.768 72.2105 541.008 71.9405 541.038C35.0928 535.868 31.5 547.5 31.5 558.5C31.5 564.603 33 578.5 55 582C64.5 583.511 78.2567 581.533 92.9405 579.288C96.7808 578.701 102.57 577.688 102.74 577.578C102.9 577.468 102.12 574.008 101.01 569.888C99.8905 565.758 98.4005 558.348 97.7105 553.418L96.4405 544.448Z" fill="#E98140"/>
<path d="M601 540.5C598.713 539.672 595.259 539.234 594.594 539.15C594.59 539.149 594.586 539.149 594.582 539.148C594.544 539.144 594.517 539.14 594.5 539.138C593.61 539.017 592.695 538.907 591.758 538.805C589.598 538.571 587.318 538.387 584.947 538.246C580.785 537.999 576.341 537.888 571.757 537.879C566.822 537.871 561.725 537.983 556.649 538.176C555.342 538.226 554.236 538.27 552.69 538.338C533.823 539.169 504.5 542.388 504.5 542.388C504.5 542.388 496.684 544.388 495.19 545.388C493.951 546.208 491.82 549.248 490.46 552.138C489.1 555.028 487.98 558.738 487.98 560.388C487.98 562.038 489.1 565.298 490.46 567.638C492.35 570.878 493.94 572.228 497.19 573.318C499.53 574.098 506.84 575.008 513.44 575.338C520.041 575.658 535.791 577.078 548.44 578.498C564.401 580.278 574.961 580.948 582.94 580.688C591.771 580.398 595.48 579.838 598.94 578.278C601.41 577.158 605.2 574.698 607.35 572.808C609.5 570.928 612.081 567.588 613.081 565.388C614.081 563.188 614.9 559.248 614.92 556.638C614.94 552.498 613.96 550.22 610.94 547.388C610.522 547.13 609.921 546.619 609.179 545.978C609.129 545.936 609.079 545.893 609.028 545.849C607.055 544.147 604.146 541.639 601 540.5Z" fill="#E98140"/>
<path fill-rule="evenodd" clip-rule="evenodd" d="M61.4505 216.228C64.2005 214.008 67.8005 211.368 69.4505 210.358C79.1006 203.868 97.1518 193.759 117 191.5C128.254 190.219 140.134 191.768 146.034 192.538C146.059 192.541 146.085 192.544 146.11 192.548C150.946 193.178 154.501 194.222 158.327 195.346C159.495 195.689 160.688 196.039 161.95 196.388C167.17 197.828 175.05 200.738 179.45 202.848C183.85 204.958 191.16 209.428 195.7 212.788C202.53 217.848 203.79 219.188 203.02 220.638C202.52 221.608 200 224.868 197.42 227.888C194.85 230.918 192.45 233.778 192.1 234.248C191.74 234.718 189.2 233.618 186.45 231.798C183.7 229.978 178.3 227.038 174.45 225.268C170.6 223.498 163.4 220.838 158.45 219.368C151.91 217.428 146.29 216.548 137.95 216.168C131.31 215.858 122.64 216.148 117.45 216.848C115.658 217.087 113.521 217.252 111.196 217.431C107.1 217.748 102.418 218.109 98 219C84.3941 221.744 69.712 232.218 67.752 234.138C65.782 236.068 65.3905 240.618 65.5805 240.888C65.7705 241.168 67.6205 240.648 69.6805 239.748C71.7505 238.848 78.1705 236.818 83.9505 235.248C93.6305 232.618 95.8105 232.388 111.95 232.388C127.11 232.388 130.38 232.678 136.45 234.568C140.3 235.768 146.36 238.688 149.93 241.068C153.49 243.448 158.44 247.938 160.93 251.038C163.41 254.148 167.23 260.228 169.41 264.538C172.28 270.218 173.38 273.638 173.38 276.888C173.38 279.368 172.79 287.018 172.06 293.888C171.14 302.518 170.88 314.748 171.22 333.388C171.55 352.058 172.23 363.628 173.42 370.888C174.36 376.668 175.93 384.538 176.91 388.388C177.88 392.238 180.25 398.538 182.16 402.388C184.07 406.238 189.09 414.788 193.31 421.388C197.53 427.988 200.98 433.958 200.97 434.638C200.96 435.328 199.48 436.998 197.7 438.358C195.91 439.708 190.85 442.228 186.45 443.948C179.82 446.538 177.59 446.968 173.45 446.468C170.7 446.138 166.42 444.858 163.95 443.628C161.32 442.318 153.83 435.838 145.95 428.048C138.52 420.708 133.12 415.048 133.95 415.458C133.534 415.024 133.113 414.609 132.689 414.213C131.696 413.285 130.523 412.29 128.99 411.256C127.523 410.268 126.653 409.769 125.049 409.022C117.569 405.539 108.011 406.289 103.95 407.878C102.57 407.868 99.4505 405.578 99.4505 405.578C99.4505 405.578 96.6805 403.498 93.4005 399.958C90.1305 396.418 86 391.5 86 391.5C86 391.5 76.7605 382.388 66.5905 371.388C63.9767 368.561 61.9462 366.377 60.2516 364.554C55.3527 359.284 53.2611 357.034 48 351C47.47 350.392 47.0283 349.893 46.6234 349.437C46.5926 349.402 46.5631 349.369 46.5327 349.335C46.506 349.305 46.4795 349.275 46.453 349.245C46.3971 349.182 46.3411 349.119 46.2861 349.057C46.2073 348.968 46.1278 348.878 46.0503 348.791C45.1271 347.749 44.2694 346.763 42.7405 344.888C40.2605 341.868 33.8805 332.868 28.5605 324.888C23.2405 316.918 18.1605 308.138 17.2705 305.388C16.1005 301.758 15.8005 298.208 16.1805 292.388C16.5205 287.228 17.8305 281.018 19.8905 274.888C21.6405 269.668 25.4105 260.948 28.2605 255.518C31.1105 250.098 36.2605 242.108 39.7005 237.768C43.1405 233.428 49.1505 227.338 51.7405 224.818C54.3305 222.308 58.7005 218.438 61.4505 216.228Z" fill="#AAB6BC"/>
<path fill-rule="evenodd" clip-rule="evenodd" d="M404.99 198.388C404.99 198.388 406.977 168.934 404.99 152.5C404.392 147.55 403 143.388 403 143.388C399.663 143.162 396.581 142.949 393.737 142.749C371.118 141.153 362.74 139.888 362.74 139.888C362.74 139.888 357.346 139.635 355 139.5C344.965 139.814 337.489 140.093 327.45 140.298C315.645 140.532 303.331 140.914 294.652 141.293C289.988 141.497 286.373 141.7 284.45 141.878C281.552 142.141 277.117 142.463 272.403 142.763C268.174 143.032 263.72 143.283 259.95 143.458C259.78 143.465 259.61 143.47 259.44 143.478C258.147 143.539 256.869 143.612 255.631 143.687C249.412 144.068 244.204 144.608 243.2 145.008L241.193 145.793L240.95 145.888L242.5 195C242.5 195 250.82 191.668 254.95 190.408C259.07 189.148 266.95 187.178 272.45 186.028C277.95 184.878 287.73 183.248 294.2 182.408C300.66 181.578 311.8 180.888 318.95 180.888C326.1 180.888 336.33 181.368 341.7 181.958C347.06 182.548 355.95 183.918 361.45 184.988C366.95 186.068 376.28 188.278 382.2 189.918C388.11 191.548 395.65 194.008 398.95 195.388L404.99 198.388ZM421.68 127.262C423.177 127.528 424.645 127.736 425.94 127.878C424.627 127.731 423.159 127.516 421.68 127.262ZM252.86 114.648C253.825 113.709 254.808 112.702 255.727 111.721C255.076 112.462 254.397 113.185 253.69 113.888C252.725 114.847 251.573 115.883 250.357 116.902C251.261 116.137 252.114 115.372 252.86 114.648Z" fill="#FEF8EB"/>
<path fill-rule="evenodd" clip-rule="evenodd" d="M600.369 225.304C600.474 225.405 600.58 225.506 600.687 225.608C600.582 225.508 600.475 225.405 600.369 225.304Z" fill="#483E4B"/>
<path d="M281.172 136.562C283.99 137.851 287.498 139.082 289.44 139.418C291.64 139.808 295.24 139.848 297.44 139.508C299.64 139.168 302.34 138.258 303.44 137.488C303.806 137.229 304.095 137.015 304.292 136.83C305.025 136.143 304.498 135.853 301.929 135.152C301.628 135.07 301.299 134.982 300.94 134.888C300.573 134.792 300.153 134.661 299.69 134.508L299.65 134.496L299.62 134.488L299.603 134.483C298.394 134.08 296.912 133.507 295.372 132.855C293.519 132.07 291.584 131.169 289.94 130.308C288.969 129.801 287.882 129.175 286.757 128.485C286.196 128.141 285.626 127.781 285.057 127.411C283.224 126.222 281.399 124.935 279.913 123.774C279.671 123.586 279.439 123.401 279.217 123.22C278.941 122.995 278.682 122.777 278.44 122.568C276.23 120.647 273.328 117.433 271.282 114.698C270.946 114.249 270.633 113.812 270.35 113.396C270.213 113.195 270.083 112.998 269.96 112.808C269.191 111.607 268.398 110.135 267.69 108.628C267.565 108.36 267.443 108.091 267.323 107.822C266.443 105.851 266.022 104.605 265.43 102.468C264.907 100.575 264.39 97.5478 264.39 97.5478L262.91 100.968C262.1 102.848 261.46 106.638 261.49 109.388C261.509 111.347 261.901 113.647 262.578 115.935C262.646 116.164 262.717 116.393 262.79 116.621C263.119 117.646 263.504 118.662 263.938 119.637C263.975 119.721 264.012 119.805 264.05 119.888C264.203 120.223 264.375 120.573 264.564 120.935C266.079 123.837 268.649 127.431 270.65 129.388C272.296 130.989 274.991 133.015 277.469 134.562C278.485 135.167 279.511 135.738 280.44 136.208C280.675 136.326 280.92 136.444 281.172 136.562Z" fill="#483E4B"/>
<path fill-rule="evenodd" clip-rule="evenodd" d="M175.5 92.5C175.029 99.9691 175.613 104.407 178 111.5C178.798 113.87 180.033 116.436 180.826 118.081C181.101 118.652 181.323 119.113 181.454 119.416C181.602 119.758 181.75 120.09 181.897 120.41C182.053 120.75 182.208 121.077 182.36 121.388C182.4 121.469 182.441 121.55 182.482 121.632C182.595 121.857 182.712 122.086 182.833 122.318C183.046 122.726 183.27 123.143 183.504 123.567C183.635 123.804 183.77 124.044 183.906 124.284C184.121 124.662 184.342 125.043 184.568 125.424C184.724 125.688 184.883 125.953 185.043 126.216C185.499 126.966 185.966 127.706 186.431 128.417C186.767 128.929 187.102 129.425 187.43 129.898C187.44 129.912 187.449 129.927 187.459 129.941L187.468 129.955C187.812 130.449 188.148 130.916 188.471 131.346C188.88 131.891 189.267 132.378 189.62 132.788C191.243 134.649 193.444 136.815 195.122 138.235C199.081 141.823 208.5 149 214.5 149C220.5 149 234.13 139.358 234.13 139.358C234.13 139.358 233.08 154.338 233.21 170.308C233.36 187.958 234 198.5 234 198.5L242.5 195C242.5 195 242.39 192.128 241.69 169.828L240.94 145.888C241.022 145.856 241.107 145.824 241.193 145.793L243.2 145.008C244.204 144.608 249.412 144.068 255.631 143.687C256.879 143.607 258.154 143.538 259.44 143.478C263.206 143.302 267.876 143.042 272.403 142.763C277.117 142.463 281.552 142.141 284.45 141.878C286.373 141.7 289.988 141.497 294.652 141.293C303.331 140.914 315.645 140.532 327.45 140.298C337.489 140.093 344.965 139.814 355 139.5C352.5 139.5 348.754 139.122 346.472 138.089C345.023 137.433 342.97 136.011 342.97 136.011C342.97 136.011 349.814 134.767 352.418 133.66C352.891 133.46 353.204 133.309 353.616 133.116C353.869 132.997 354.127 132.875 354.39 132.748C354.636 132.629 354.881 132.507 355.125 132.382C355.672 132.104 356.216 131.811 356.756 131.505C357.253 131.223 357.748 130.93 358.239 130.625C359.039 130.129 359.832 129.602 360.615 129.045C362.966 127.373 365.233 125.433 367.39 123.238C369.692 120.908 372.444 117.608 374.551 114.726C374.898 114.251 375.227 113.788 375.534 113.342C376.06 112.579 376.52 111.867 376.89 111.238C378.518 108.495 379.473 106.317 380.411 102.915C381.036 100.651 381.5 97 381.5 97C381.524 96.9855 381.477 97.0135 381.5 97C381.056 97.263 375.039 102.156 374.69 102.538C372.778 104.398 366.641 109.428 364.44 110.938C362.24 112.458 356.84 115.098 352.44 116.818C348.04 118.538 340.611 120.608 335.94 121.418C331.27 122.238 324.29 122.888 320.44 122.868C316.3 122.848 308.93 121.728 302.4 120.108C295.23 118.348 289.29 116.158 285.46 113.888C282.22 111.958 276.29 107.008 265.02 95.3878L262.12 101.888C260.599 105.309 258.411 108.665 255.727 111.721C255.076 112.462 254.397 113.185 253.69 113.888C252.725 114.847 251.573 115.883 250.357 116.902C247.653 119.19 244.502 121.466 242.44 122.568C239.69 124.038 235.19 125.828 232.44 126.548C229.69 127.278 224.4 127.868 220.69 127.878C216.98 127.878 211.58 127.378 208.69 126.768C205.8 126.148 202.266 124.967 198.44 123.118C192.532 120.262 186.213 115.667 184.74 113.388C179 104.5 180 108 175.5 92.5ZM280.09 136.048C279.291 135.651 278.395 135.14 277.469 134.562C274.991 133.015 272.296 130.989 270.65 129.388C268.649 127.431 266.079 123.837 264.564 120.935C264.375 120.573 264.203 120.223 264.05 119.888C264.012 119.805 263.975 119.721 263.938 119.637C263.504 118.662 263.119 117.646 262.79 116.621C262.717 116.393 262.646 116.164 262.578 115.935C261.901 113.647 261.509 111.347 261.49 109.388C261.46 106.638 262.1 102.848 262.91 100.968L264.39 97.5478C264.39 97.5478 264.907 100.575 265.43 102.468C266.022 104.605 266.443 105.851 267.323 107.822C267.443 108.091 267.565 108.36 267.69 108.628C268.398 110.135 269.191 111.607 269.96 112.808C270.083 112.998 270.213 113.195 270.35 113.396C270.633 113.812 270.946 114.249 271.282 114.698C273.328 117.433 276.23 120.647 278.44 122.568C278.682 122.777 278.941 122.995 279.217 123.22C279.439 123.401 279.671 123.586 279.913 123.774C281.399 124.935 283.224 126.222 285.057 127.411C285.626 127.781 286.196 128.141 286.757 128.485C287.882 129.175 288.969 129.801 289.94 130.308C291.584 131.169 293.519 132.07 295.372 132.855C296.912 133.507 298.394 134.08 299.603 134.483L299.62 134.488L299.65 134.496L299.69 134.508C300.57 134.754 301.311 134.965 301.929 135.152C304.498 135.853 305.025 136.143 304.292 136.83C304.114 137.024 303.822 137.243 303.44 137.508C302.34 138.268 299.64 139.168 297.44 139.508C295.24 139.848 291.64 139.808 289.44 139.418C287.428 139.07 283.869 137.828 281.172 136.562C280.797 136.391 280.435 136.219 280.09 136.048Z" fill="#AAB6BC"/>
<path d="M381.5 97C381.5 97 381.036 100.651 380.411 102.915C379.473 106.317 378.518 108.495 376.89 111.238C376.52 111.867 376.06 112.579 375.534 113.342C375.227 113.788 374.898 114.251 374.551 114.726C372.444 117.608 369.692 120.908 367.39 123.238C365.233 125.433 362.966 127.373 360.615 129.045C359.832 129.602 359.039 130.129 358.239 130.625C357.748 130.93 357.253 131.223 356.756 131.505C356.216 131.811 355.672 132.104 355.125 132.382C354.881 132.507 354.636 132.629 354.39 132.748C354.127 132.875 353.869 132.997 353.616 133.116C353.204 133.309 352.891 133.46 352.418 133.66C349.814 134.767 342.97 136.011 342.97 136.011C342.97 136.011 345.023 137.433 346.472 138.089C348.754 139.122 352.5 139.5 355 139.5C358.5 139.5 363.096 137.8 365.69 136.488C368.3 135.178 372.46 132.328 374.94 130.158C377.74 127.718 380.33 124.178 381.78 120.808C381.839 120.673 381.896 120.539 381.952 120.405C381.988 120.318 382.024 120.23 382.06 120.143C382.08 120.093 382.1 120.044 382.12 119.994C382.12 119.994 382.146 119.931 382.162 119.89C383.773 115.83 384.151 111.862 384.17 108.888C384.2 104.998 381.5 97 381.5 97Z" fill="#483E4B"/>
<path fill-rule="evenodd" clip-rule="evenodd" d="M288.44 4.88778C293.39 3.20778 300.37 1.45778 303.94 0.987777C307.51 0.517777 313.82 0.0777767 317.94 0.00777672C322.07 -0.0622233 330.17 0.347777 335.94 0.937777C342.4 1.58778 349.8 3.12778 355.19 4.94778C360 6.56778 367.2 9.51778 371.19 11.5178C375.18 13.5178 380.46 16.5478 382.94 18.2578C385.42 19.9678 390.93 24.8578 402.94 36.8878L412.19 35.2878C418.03 34.2878 424.57 33.8678 429.94 34.1678C436.22 34.5178 440.53 35.4478 446.44 37.7278C450.84 39.4278 457.87 43.1978 462.07 46.1078C466.27 49.0078 471.62 53.6378 473.98 56.3878C476.33 59.1378 479.29 62.9578 480.55 64.8878C481.82 66.8178 484.24 72.6678 485.95 77.8878C488.58 85.9778 489.04 88.9478 489.09 97.8878C489.11 103.668 488.58 111.088 487.91 114.388C487.23 117.688 485.8 122.418 484.72 124.888C483.65 127.358 480.22 133.188 477.1 137.818C473.6 143.048 469.16 148.088 465.44 151.078C462.14 153.738 456.52 157.448 452.94 159.318C449.36 161.198 444.42 163.418 441.94 164.248C439.46 165.068 430 160 430 160L431.19 187.138C431.05 198.548 431.28 207.898 431.69 207.918C432.1 207.928 435.14 205.788 438.44 203.158C441.74 200.518 447.82 196.248 451.94 193.668C456.07 191.078 462.14 187.898 465.44 186.588C465.874 186.417 466.522 186.145 467.349 185.798C472.821 183.502 486.15 177.908 497.44 176.388C507.503 175.033 525 175.5 525 175.5C525 175.5 549.61 176.498 558.44 179.198C563.39 180.718 571.04 183.678 575.44 185.788C579.84 187.898 587.27 192.368 591.94 195.728C596.61 199.098 604 205.118 608.36 209.118C612.71 213.118 619.07 219.988 622.48 224.388C625.9 228.788 630.81 235.988 633.4 240.388C635.99 244.788 639.49 251.538 641.18 255.388C642.86 259.238 645.57 266.888 647.2 272.388C649.25 279.318 650.31 285.458 650.67 292.388C651.05 299.838 650.76 304.048 649.52 308.888C648.6 312.458 645.34 320.118 642.28 325.888C639.21 331.658 634.43 339.768 631.66 343.888C628.88 348.018 622.98 356.118 618.55 361.888C614.11 367.658 605.95 378.018 600.41 384.888C594.87 391.768 581.86 407.738 571.49 420.388C561.12 433.038 550.56 445.868 548.02 448.888C545.47 451.908 542.84 455.178 542.17 456.138C541.12 457.628 541.76 459.018 546.54 465.638C549.62 469.898 560.3 484.298 588.44 521.878L597.44 523.938C602.39 525.068 609.1 527.438 612.34 529.198C615.59 530.948 619.52 533.968 621.08 535.888C622.64 537.808 625.16 541.868 626.68 544.888C629.05 549.618 629.44 551.568 629.42 558.888C629.4 565.568 628.94 568.248 627.29 571.388C626.14 573.588 622.52 577.868 619.26 580.888C616 583.908 611.11 587.598 608.39 589.078C605.67 590.558 600.96 592.418 597.94 593.218C594.92 594.018 588.84 594.988 584.44 595.378C579.48 595.808 569.22 595.458 557.44 594.468C546.99 593.588 533.49 592.198 527.44 591.398C521.39 590.588 515.77 589.908 514.94 589.878C513.97 589.848 512.61 592.218 511.09 596.608C509.8 600.338 507.51 605.188 506 607.388C504.48 609.588 501.43 612.968 499.22 614.888C497 616.808 493.22 619.378 490.81 620.588C488.41 621.798 482.17 623.488 476.94 624.338C468.66 625.678 447.26 625.878 309.94 625.868C173.67 625.858 151.5 625.648 145.44 624.348C141.59 623.528 136.19 621.798 133.44 620.508C130.69 619.218 126 616.188 123.02 613.778C120.04 611.358 115.41 606.238 112.74 602.388C110.07 598.538 107.9 594.828 107.91 594.138C107.924 593.311 107.017 593.068 105.19 593.408C103.68 593.688 97.2605 594.578 90.9405 595.388C84.6205 596.188 74.0405 596.838 67.4405 596.828C60.8405 596.828 52.7405 596.228 49.4405 595.498C46.1405 594.778 41.8705 593.508 39.9405 592.678C38.0105 591.848 34.0805 589.308 31.1905 587.028C28.3005 584.748 24.3905 580.528 22.5005 577.638C20.6105 574.748 18.3305 569.468 17.4305 565.888C16.4005 561.768 16.0831 553.391 19.3005 546.498C21.1597 542.514 23.4705 539.718 25.9405 537.408C28.4105 535.098 32.6905 532.068 35.4405 530.668C38.1905 529.258 42.9105 527.378 45.9405 526.488C49.6905 525.388 55.2705 524.868 63.4405 524.878C70.0405 524.888 79.6005 525.568 84.6905 526.388C89.7805 527.218 94.4905 527.998 95.1605 528.138C95.9405 528.298 96.9605 525.508 97.9805 520.388C98.8605 515.988 100.6 509.238 104.14 498.388L100.84 495.888C99.0205 494.518 93.9105 489.928 89.4905 485.708C84.7405 481.178 79.7005 475.138 77.1905 470.958C74.8505 467.068 72.2105 461.298 71.3205 458.138C70.2805 454.448 69.8405 449.878 70.0805 445.388C70.3605 440.138 71.2005 436.888 73.4505 432.388C75.0905 429.098 78.3505 424.478 80.6905 422.138C83.0305 419.798 84.9205 417.548 84.9105 417.138C84.8905 416.728 82.4605 413.458 79.5005 409.888C76.5505 406.318 66.8305 395.738 57.9105 386.388C48.9905 377.038 38.6805 365.788 35.0005 361.388C31.3105 356.988 24.7605 348.438 20.4305 342.388C16.1105 336.338 10.5105 328.018 7.98046 323.888C4.83046 318.738 2.81046 313.888 1.52046 308.388C0.070457 302.188 -0.239543 298.028 0.160457 289.888C0.540457 282.038 1.36046 277.368 3.41046 271.388C4.92046 266.988 8.62046 258.208 11.6305 251.888C14.6505 245.568 19.4305 237.018 22.2705 232.888C25.1205 228.768 32.6205 220.178 38.9405 213.808C46.6071 206.094 53.7738 200.031 60.4405 195.618C65.9405 191.978 73.5905 187.578 77.4405 185.828C81.2905 184.088 87.3705 181.748 90.9405 180.638C94.5105 179.528 99.9205 177.988 102.94 177.208C105.96 176.438 115.87 175.548 124.94 175.228C137.7 174.788 143.54 175.028 150.69 176.278C155.78 177.158 164.33 179.288 169.69 181.008C175.05 182.728 182.14 185.478 185.44 187.128C188.74 188.778 194.59 191.968 198.44 194.218C202.29 196.468 207.8 200.238 210.69 202.598C213.58 204.958 216.39 206.888 216.94 206.888C217.58 206.888 222 160.5 222 160.5C222 160.5 210.898 164.459 203.94 162.958C198.564 161.798 195.29 158.878 191.44 156.468C187.59 154.068 181.51 149.018 177.94 145.248C173.89 140.978 169.88 135.358 167.32 130.388C165.06 125.988 162.51 119.458 161.64 115.888C160.78 112.318 159.76 106.688 159.37 103.388C158.9 99.2678 159.23 94.2478 160.45 87.3878C161.42 81.8878 163.1 75.3578 164.17 72.8878C165.25 70.4178 167.52 66.3578 169.22 63.8878C170.92 61.4178 175.49 56.0678 179.38 51.9978C184.76 46.3678 188.11 43.8378 193.44 41.3678C197.29 39.5878 203.14 37.3278 206.44 36.3478C210.3 35.1978 216.01 34.5378 222.44 34.4778C228.01 34.4278 234.44 34.9678 241.44 37.0078L250.97 27.6978C258.12 20.7078 262.86 17.0878 269.97 13.1678C275.18 10.2878 283.49 6.56778 288.44 4.88778ZM254.95 190.408C250.82 191.668 242.5 195 242.5 195L234 198.5C234 198.5 233.36 187.958 233.21 170.308C233.08 154.338 234.13 139.358 234.13 139.358C234.13 139.358 220.5 149 214.5 149C208.5 149 199.081 141.823 195.122 138.235C193.444 136.815 191.243 134.649 189.62 132.788C189.267 132.378 188.88 131.891 188.471 131.346C188.148 130.916 187.812 130.449 187.468 129.955L187.459 129.941C187.449 129.927 187.44 129.912 187.43 129.898C187.102 129.425 186.767 128.929 186.431 128.417C185.966 127.706 185.499 126.966 185.043 126.216C184.883 125.953 184.724 125.688 184.568 125.424C184.342 125.043 184.121 124.662 183.906 124.284C183.77 124.044 183.635 123.804 183.504 123.567C183.27 123.143 183.046 122.726 182.833 122.318C182.712 122.086 182.595 121.857 182.482 121.632C182.441 121.55 182.4 121.469 182.36 121.388C182.208 121.077 182.053 120.75 181.897 120.41C181.75 120.09 181.602 119.758 181.454 119.416C181.323 119.113 181.101 118.652 180.826 118.081C180.033 116.436 178.798 113.87 178 111.5C175.613 104.407 175.029 99.9691 175.5 92.5C176.621 86.8368 178.735 81.598 181.859 76.7434L182.027 76.4818C182.424 75.8678 182.843 75.2278 183.287 74.5502L183.72 73.8878C185.48 71.1966 187.69 68.4478 188.67 67.3078C189.64 66.1578 193.37 62.9778 196.94 60.2278C201.09 57.0378 205.97 54.4078 210.44 52.9378C216.33 50.9978 218.67 50.7278 232.94 51.8878L232.22 55.6378C231.82 57.6978 231.5 61.1878 231.52 63.3878C231.53 65.5878 232.31 68.6278 233.24 70.1378C234.18 71.6478 236.75 74.1278 238.96 75.6378C241.16 77.1478 243.17 78.1678 243.42 77.8878C243.66 77.6078 244.81 73.7878 245.97 69.3878C247.13 64.9878 249.4 58.6878 251.02 55.3878C252.63 52.0878 256.31 46.5178 259.2 43.0178C262.08 39.5178 267.37 34.7178 270.94 32.3378C274.51 29.9678 280.03 26.8678 283.19 25.4578C286.35 24.0478 292.2 21.9878 296.19 20.8778C300.18 19.7778 307.71 18.4878 312.94 18.0178C318.171 17.5478 324.01 17.0978 325.94 17.0278C327.861 16.9578 333.27 17.5278 337.94 18.2878C342.611 19.0578 349.59 20.8778 353.44 22.3378C357.29 23.7978 363.361 26.6178 366.94 28.6178C370.52 30.6078 375.69 33.9078 378.44 35.9578C381.19 38.0078 385.28 42.0878 387.53 45.0378C389.78 47.9778 392.54 51.9578 393.66 53.8878C394.78 55.8178 396.49 59.8578 397.46 62.8878C398.43 65.9178 399.49 70.3778 399.83 72.8078C400.17 75.2378 401 77.3678 401.69 77.5578C402.38 77.7378 404.59 76.1978 406.6 74.1378C408.61 72.0778 410.86 68.9278 411.6 67.1378C412.34 65.3478 413.03 62.4278 413.14 60.6378C413.26 58.8478 413.021 56.4878 412.63 55.3878C412.03 53.7178 412.53 53.1878 415.68 52.1578C417.75 51.4778 422.59 50.9278 426.44 50.9278C431.37 50.9278 435.51 51.6678 440.44 53.4378C444.29 54.8078 448.79 56.9878 450.44 58.2778C452.09 59.5678 455.24 62.3778 457.44 64.5278C459.641 66.6878 463.1 70.9078 465.12 73.9178C467.15 76.9278 469.964 82.9053 470.99 86.3878C472.459 90.4194 473.202 98.2703 472.517 102.506C471.863 106.551 470.14 113.104 467.5 119.5C465.25 124.95 463.766 128.119 460.522 132.89C459.402 134.538 458.566 135.671 457.5 137C455.404 139.611 453.283 141.192 449.888 142.693C448.309 143.391 446.313 143.934 443.94 144.388C438.535 145.421 433.864 144.838 429.849 144.184C429.655 144.152 429.461 144.12 429.267 144.086C427.631 143.803 426.043 143.456 424.534 143.072C421.4 142.272 418.609 141.306 416.44 140.388C416.17 141.208 415.95 155.278 415.97 171.638C415.98 187.998 415.76 201.728 415.47 202.138C415.18 202.548 404.99 198.388 404.99 198.388L398.95 195.388C395.65 194.008 388.11 191.548 382.2 189.918C376.28 188.278 366.95 186.068 361.45 184.988C355.95 183.918 347.06 182.548 341.7 181.958C336.33 181.368 326.1 180.888 318.95 180.888C311.8 180.888 300.66 181.578 294.2 182.408C287.73 183.248 277.95 184.878 272.45 186.028C266.95 187.178 259.07 189.148 254.95 190.408ZM117.87 424.648C119.76 425.608 122.24 427.668 123.37 429.218C124.91 431.308 125.44 433.508 125.41 437.718C125.38 441.638 124.58 445.098 122.82 448.898C121.41 451.918 118.96 455.938 117.36 457.828C115.76 459.718 112.42 462.538 109.95 464.088C107.37 465.718 104.06 466.918 102.2 466.908C100.41 466.898 97.1505 465.998 94.9505 464.898C92.7505 463.798 90.2705 461.768 89.4505 460.398C89.3466 460.225 89.2491 460.064 89.1571 459.913C88.5138 458.852 87.6498 457.169 87.1093 455.258C86.3882 452.708 86.3668 451.147 86.5 448.5C86.6714 445.094 87.2205 443.865 88.5 440C90.1203 435.106 91.793 432.603 95.5 429.218C98.4996 426.478 102.8 424.388 104.45 423.918C106.1 423.458 109.02 423.038 110.95 422.988C112.87 422.938 115.99 423.688 117.87 424.648ZM444.84 439.878C445.17 439.878 446.33 441.338 447.42 443.128C448.51 444.928 451.92 449.548 455.01 453.398C458.1 457.248 462.84 462.018 465.54 463.988C468.24 465.968 473.6 469.318 477.45 471.428C484.19 475.118 484.87 475.278 495.95 475.698C507.35 476.138 507.521 476.108 516.451 472.458C521.401 470.428 526.6 468.578 526.6 468.578C526.6 468.578 543.401 488.648 545.331 491.398C547.271 494.148 557.201 507.508 557.201 507.508L565.201 519.998L518.951 526.398C518.951 526.398 500.15 496.728 498.57 494.128C496.99 491.518 495.19 489.068 494.57 488.658C493.95 488.258 469.03 487.918 439.2 487.908C404.04 487.898 384.77 487.538 384.45 486.898C384.17 486.348 385.86 485.398 388.2 484.798C390.53 484.198 395.6 482.258 399.45 480.488C403.3 478.708 408.92 475.678 411.95 473.738C414.97 471.788 421.72 465.968 426.95 460.798C432.17 455.618 438.2 448.798 440.34 445.638C442.48 442.478 444.5 439.888 444.84 439.878ZM473.27 505.268C471.72 506.588 469.14 510.068 467.56 513.018C465.97 515.978 464.09 520.408 463.37 522.888C462.65 525.368 461.52 532.118 460.86 537.888C460.15 544.098 459.91 553.288 460.27 560.388C460.61 566.988 461.75 575.988 462.82 580.388C463.89 584.788 466.27 591.498 468.1 595.288C469.94 599.088 472.68 603.248 474.19 604.538C475.701 605.828 477.951 607.158 479.19 607.498C480.43 607.828 482.79 607.788 484.44 607.408C486.09 607.028 489.13 604.948 491.19 602.798C493.25 600.648 495.5 597.058 496.19 594.828C497.04 592.058 497.12 590.288 496.44 589.268C495.891 588.448 492.74 586.668 489.44 585.318C486.141 583.958 482.37 581.848 481.06 580.618C479.75 579.388 477.61 576.138 476.32 573.388C474.84 570.248 473.951 566.528 473.94 563.388C473.93 560.638 474.86 554.788 476 550.388C477.141 545.988 478.86 541.038 479.81 539.388C480.77 537.738 483.33 535.378 485.5 534.158C487.671 532.928 491.91 531.218 494.94 530.358C497.96 529.498 501 528.588 501.69 528.338C502.54 528.028 501.63 525.738 498.83 521.138C496.56 517.428 493.3 512.868 491.58 511.018C489.85 509.158 486.19 506.578 483.44 505.278C480.69 503.978 477.92 502.908 477.27 502.898C476.63 502.888 474.83 503.958 473.27 505.268ZM392.94 503.888C352.271 503.888 328 505 328 505C328 505 319.13 511.718 315.69 513.948C312.25 516.188 304.04 520.638 297.44 523.838C290.84 527.038 281.84 530.818 277.44 532.248C273.04 533.678 264.71 535.738 258.94 536.838C253.16 537.928 243.15 539.518 236.69 540.358C230.23 541.198 221.68 541.878 217.69 541.868C213.7 541.858 206.28 541.408 201.19 540.868C196.1 540.328 186.88 538.658 180.69 537.148C172.81 535.228 165.76 532.608 157.16 528.398C145.83 522.858 144.84 522.548 144.45 524.388C144.22 525.488 143.56 528.748 142.99 531.638C142.41 534.528 141.94 541.388 141.94 546.888C141.94 552.388 142.41 560.148 142.98 564.138C143.55 568.128 144.51 573.638 145.11 576.388C145.71 579.138 147.98 585.658 150.15 590.888C152.32 596.118 155.41 602.078 157.02 604.138C158.91 606.568 161.08 608.118 163.19 608.538C164.98 608.898 232.48 609.228 313.19 609.288C393.9 609.338 459.82 609.158 459.68 608.888C459.54 608.618 458.02 605.688 456.3 602.388C454.57 599.088 452.44 593.908 451.55 590.888C450.66 587.868 449.19 579.308 448.28 571.888C446.85 560.298 446.78 556.548 447.82 545.388C448.48 538.238 449.604 527.555 452.5 516.5C453.69 511.959 456 505 456 505C456 505 433.94 503.888 392.94 503.888ZM118.54 510.108C117.77 511.908 116.32 517.218 115.31 521.888C114.04 527.768 113.48 534.388 113.51 543.388C113.54 553.438 114.06 558.438 115.8 565.388C117.04 570.338 119.84 578.218 122.04 582.888C124.36 587.818 127.8 593.188 130.24 595.688C132.55 598.048 135.9 600.858 137.69 601.938C139.48 603.008 140.94 603.658 140.94 603.388C140.94 603.118 140.45 601.648 139.85 600.138C139.25 598.628 137.2 592.438 135.28 586.388C133.37 580.338 130.89 570.438 129.77 564.388C128.05 555.068 127.82 550.638 128.23 535.388C128.49 525.488 129 516.488 129.35 515.388C129.85 513.788 128.98 512.738 124.95 510.108L119.93 506.828L118.54 510.108ZM71.9405 541.038C72.2105 541.008 77.8405 541.768 96.4405 544.448L97.7105 553.418C98.4005 558.348 99.8905 565.758 101.01 569.888C102.12 574.008 102.9 577.468 102.74 577.578C102.57 577.688 96.7808 578.701 92.9405 579.288C78.2567 581.533 64.5 583.511 55 582C33 578.5 31.5 564.603 31.5 558.5C31.5 547.5 35.0928 535.868 71.9405 541.038ZM594.594 539.15C595.259 539.234 598.713 539.672 601 540.5C604.146 541.639 607.055 544.147 609.028 545.849L609.179 545.978C609.921 546.619 610.522 547.13 610.94 547.388C613.96 550.22 614.94 552.498 614.92 556.638C614.9 559.248 614.081 563.188 613.081 565.388C612.081 567.588 609.5 570.928 607.35 572.808C605.2 574.698 601.41 577.158 598.94 578.278C595.48 579.838 591.771 580.398 582.94 580.688C574.961 580.948 564.401 580.278 548.44 578.498C535.791 577.078 520.041 575.658 513.44 575.338C506.84 575.008 499.53 574.098 497.19 573.318C493.94 572.228 492.35 570.878 490.46 567.638C489.1 565.298 487.98 562.038 487.98 560.388C487.98 558.738 489.1 555.028 490.46 552.138C491.82 549.248 493.951 546.208 495.19 545.388C496.684 544.388 504.5 542.388 504.5 542.388C504.5 542.388 533.823 539.169 552.69 538.338C554.236 538.27 555.342 538.226 556.649 538.176C561.725 537.983 566.822 537.871 571.757 537.879C576.341 537.888 580.785 537.999 584.947 538.246C587.318 538.387 589.598 538.571 591.758 538.805C592.695 538.907 593.61 539.017 594.5 539.138C594.517 539.14 594.544 539.144 594.582 539.148L594.594 539.15ZM69.4505 210.358C67.8005 211.368 64.2005 214.008 61.4505 216.228C58.7005 218.438 54.3305 222.308 51.7405 224.818C49.1505 227.338 43.1405 233.428 39.7005 237.768C36.2605 242.108 31.1105 250.098 28.2605 255.518C25.4105 260.948 21.6405 269.668 19.8905 274.888C17.8305 281.018 16.5205 287.228 16.1805 292.388C15.8005 298.208 16.1005 301.758 17.2705 305.388C18.1605 308.138 23.2405 316.918 28.5605 324.888C33.8805 332.868 40.2605 341.868 42.7405 344.888C44.2694 346.763 45.1271 347.749 46.0503 348.791L46.2861 349.057L46.453 349.245L46.5327 349.335L46.6234 349.437C47.0283 349.893 47.47 350.392 48 351C53.2611 357.034 55.3527 359.284 60.2516 364.554C61.9462 366.377 63.9767 368.561 66.5905 371.388C76.7605 382.388 86 391.5 86 391.5C86 391.5 90.1305 396.418 93.4005 399.958C96.6805 403.498 99.4505 405.578 99.4505 405.578C99.4505 405.578 102.57 407.868 103.95 407.878C108.011 406.289 117.569 405.539 125.049 409.022C126.653 409.769 127.523 410.268 128.99 411.256C130.523 412.29 131.696 413.285 132.689 414.213C133.113 414.609 133.534 415.024 133.95 415.458C133.12 415.048 138.52 420.708 145.95 428.048C153.83 435.838 161.32 442.318 163.95 443.628C166.42 444.858 170.7 446.138 173.45 446.468C177.59 446.968 179.82 446.538 186.45 443.948C190.85 442.228 195.91 439.708 197.7 438.358C199.48 436.998 200.96 435.328 200.97 434.638C200.98 433.958 197.53 427.988 193.31 421.388C189.09 414.788 184.07 406.238 182.16 402.388C180.25 398.538 177.88 392.238 176.91 388.388C175.93 384.538 174.36 376.668 173.42 370.888C172.23 363.628 171.55 352.058 171.22 333.388C170.88 314.748 171.14 302.518 172.06 293.888C172.79 287.018 173.38 279.368 173.38 276.888C173.38 273.638 172.28 270.218 169.41 264.538C167.23 260.228 163.41 254.148 160.93 251.038C158.44 247.938 153.49 243.448 149.93 241.068C146.36 238.688 140.3 235.768 136.45 234.568C130.38 232.678 127.11 232.388 111.95 232.388C95.8105 232.388 93.6305 232.618 83.9505 235.248C78.1705 236.818 71.7505 238.848 69.6805 239.748C67.6205 240.648 65.7705 241.168 65.5805 240.888C65.3905 240.618 65.782 236.068 67.752 234.138C69.712 232.218 84.3941 221.744 98 219C102.418 218.109 107.1 217.748 111.196 217.431C113.521 217.252 115.658 217.087 117.45 216.848C122.64 216.148 131.31 215.858 137.95 216.168C146.29 216.548 151.91 217.428 158.45 219.368C163.4 220.838 170.6 223.498 174.45 225.268C178.3 227.038 183.7 229.978 186.45 231.798C189.2 233.618 191.74 234.718 192.1 234.248C192.45 233.778 194.85 230.918 197.42 227.888C200 224.868 202.52 221.608 203.02 220.638C203.79 219.188 202.53 217.848 195.7 212.788C191.16 209.428 183.85 204.958 179.45 202.848C175.05 200.738 167.17 197.828 161.95 196.388C160.688 196.039 159.495 195.689 158.327 195.346C154.501 194.222 150.946 193.178 146.11 192.548L146.034 192.538C140.134 191.768 128.254 190.219 117 191.5C97.1518 193.759 79.1006 203.868 69.4505 210.358ZM550.951 194.438C543.42 192.308 538.75 191.678 528.451 191.398C521.3 191.198 511.4 191.428 506.45 191.908C505.731 191.978 505.042 192.041 504.373 192.103C500.439 192.467 497.209 192.766 492.7 193.838C487.431 195.091 483.019 197.032 479.113 198.751L478.858 198.863C477.59 199.421 476.375 199.953 475.2 200.428L474.617 200.662C470.107 202.476 466.865 203.78 462.2 206.428C458.654 208.441 455.1 210.928 453.45 212.128C451.8 213.328 447.6 217.028 444.11 220.348C440.63 223.668 435.81 229.318 433.4 232.888C430.99 236.468 428.44 240.158 427.73 241.098C427.02 242.038 426.22 242.828 425.95 242.848C425.67 242.878 425.36 242.108 425.26 241.138C425.16 240.178 424.88 236.918 424.65 233.888C424.26 228.748 423.91 228.118 419.34 224.178C416.65 221.868 409.5 217.468 403.45 214.398C396.15 210.708 388.07 207.618 379.45 205.248C372.3 203.278 363.07 200.828 358.95 199.798C353.01 198.328 345.81 197.808 324.45 197.318C299.98 196.748 296.2 196.878 284.2 198.788C276.91 199.948 267.23 202.068 262.7 203.498C258.16 204.938 247.7 209.528 239.45 213.708C226.45 220.298 223.51 222.248 217.44 228.348C213.58 232.218 207.88 238.538 204.77 242.388C201.62 246.308 197.59 252.918 195.63 257.388C193.72 261.788 191.42 268.988 190.52 273.388C189.63 277.788 188.43 286.568 187.86 292.888C187.27 299.288 187 317.258 187.24 333.388C187.48 349.338 188.18 365.988 188.8 370.388C189.42 374.788 191.34 382.668 193.08 387.888C194.81 393.118 197.57 400.088 199.21 403.388C200.85 406.688 204.16 411.758 206.57 414.638C208.98 417.528 211.28 419.888 211.7 419.888C212.11 419.888 213.5 416.858 214.78 413.138C216.06 409.428 219.12 402.338 221.57 397.388C224.02 392.438 226.79 387.378 227.73 386.148C228.68 384.908 231.92 382.998 234.95 381.898C237.97 380.788 241.01 379.888 241.7 379.888C242.54 379.888 242.95 381.658 242.95 385.388C242.95 390.008 242.12 392.538 237.83 401.138C235.02 406.778 231.92 413.418 230.95 415.888C229.99 418.368 227.39 423.988 225.19 428.388C222.99 432.788 219.33 438.758 217.07 441.638C214.8 444.528 211.03 448.108 208.7 449.588C206.36 451.068 201.3 453.838 197.45 455.738C193.6 457.638 187.97 460.048 184.95 461.098C181.92 462.148 177.568 463.641 172.7 463.448C168.285 463.272 164.08 461.618 161.73 460.678C159.37 459.728 155.089 457.434 151.16 454.818C149.628 453.797 148.532 452.917 147.408 452.015C146.454 451.249 145.479 450.466 144.2 449.568C142.658 448.484 140.2 446.868 140.2 446.868C140.2 446.868 139.14 448.088 138.76 449.618C138.38 451.138 136.35 455.218 134.26 458.678C132.16 462.128 128.39 467.308 125.88 470.178C123.37 473.048 119.21 476.738 116.64 478.388L111.97 481.388C127.84 493.248 137.85 499.898 144.45 503.818C151.05 507.728 160.27 512.528 164.95 514.468C169.62 516.418 177.27 519.078 181.95 520.388C186.62 521.698 195.17 523.558 200.95 524.528C210.33 526.098 213.52 526.168 230.95 525.138C247.48 524.158 252.42 523.478 263.45 520.608C271.43 518.538 279.88 515.528 285.33 512.818C290.22 510.378 304.492 501.107 316.29 492.888C316.849 492.499 317.392 492.121 317.919 491.754C322.309 488.701 325.713 486.333 329.47 483.388C335.47 478.688 339.35 474.358 347.35 463.388C352.97 455.688 360.11 444.888 363.22 439.388C366.32 433.888 369.5 427.588 370.27 425.388C371.05 423.188 372.19 418.128 372.81 414.138C373.78 407.938 374.23 406.888 375.95 406.888C377.05 406.888 379.9 408.578 382.3 410.638C384.69 412.708 388.53 416.868 390.83 419.888C394.58 424.818 394.95 425.808 394.43 429.388C394.1 431.588 393.08 434.688 392.14 436.278C391.21 437.868 388.87 439.998 386.95 441.028C385.02 442.048 381.76 443.568 379.7 444.388C376.76 445.568 375.49 446.918 373.86 450.638C372.71 453.258 369.78 458.428 367.36 462.138C364.93 465.858 362.95 469.338 362.95 469.888C362.95 470.518 365.81 470.678 370.7 470.318C374.96 469.998 381.37 468.888 384.95 467.848C388.52 466.808 394.82 463.978 398.95 461.568C403.23 459.068 409.88 453.778 414.45 449.258C418.85 444.908 425.35 437.308 428.9 432.368C432.45 427.428 435.97 421.368 436.74 418.888C437.5 416.418 438.2 410.458 438.29 405.648C438.37 400.838 438.56 396.908 438.7 396.898C438.83 396.898 439.91 398.808 441.09 401.138C442.27 403.478 445.34 408.538 447.92 412.388C450.49 416.238 455.23 423.888 458.44 429.388C461.66 434.888 466.86 442.088 470 445.388C474.11 449.708 477.78 452.358 483.08 454.848C488.1 457.198 492.36 458.438 496.45 458.728C500.48 459.008 504.25 458.568 507.95 457.378C510.97 456.408 515.581 454.548 518.201 453.248C520.81 451.958 525.031 448.978 527.57 446.638C530.12 444.308 541.74 430.688 553.391 416.388C565.041 402.088 579.041 384.848 584.51 378.068C587.717 374.086 589.46 372.073 591.226 370.033L591.693 369.494C592.788 368.227 593.942 366.884 595.5 365C597.282 362.845 598.288 361.489 599.484 359.876C599.622 359.69 599.764 359.498 599.909 359.303C600.925 357.936 602.14 356.319 604.07 353.888C608.651 348.118 615.231 339.118 618.701 333.888C622.161 328.668 626.79 320.788 628.99 316.388C631.4 311.558 633.451 305.618 634.17 301.388C635.09 295.968 635.081 292.868 634.151 287.638C633.491 283.928 631.541 276.508 629.831 271.138C628.111 265.778 625.451 258.918 623.93 255.888C622.4 252.868 618.96 247.368 616.3 243.678C613.63 239.978 609.395 234.69 604.451 229.388C602.982 227.813 601.646 226.527 600.369 225.304L600.184 225.127C598.906 223.904 597.684 222.734 596.44 221.388C594.652 219.451 592.301 217.643 589.65 215.605L589.229 215.281C588.244 214.523 587.22 213.731 586.17 212.888C585.105 212.032 584.214 211.273 583.377 210.56C581.532 208.989 579.947 207.639 577.341 205.968C573.551 203.538 568.201 200.558 565.451 199.338C562.701 198.118 556.17 195.908 550.951 194.438Z" fill="#483E4B"/>
<path fill-rule="evenodd" clip-rule="evenodd" d="M438.94 127.708C436.807 128.103 434.06 128.278 431.163 128.222C430.23 128.206 429.282 128.166 428.336 128.103L428.221 128.095C427.456 128.042 426.693 127.973 425.94 127.888L425.94 127.878C424.645 127.736 423.177 127.528 421.68 127.262C418.416 126.682 415.011 125.878 412.94 125.158C409.921 124.108 404.29 121.238 400.44 118.758C399.844 118.375 399.215 117.945 398.567 117.48C395.201 115.029 391.453 111.75 389.26 109.258L387.444 107.195C385.404 104.586 381.5 97 381.5 97C381.5 97 384.2 104.998 384.17 108.888C384.151 111.862 383.773 115.83 382.162 119.89L382.12 119.994C382.1 120.044 382.08 120.093 382.06 120.143C382.024 120.23 381.988 120.318 381.952 120.405C381.896 120.539 381.839 120.673 381.78 120.808C380.33 124.178 377.74 127.718 374.94 130.158C372.46 132.328 368.3 135.178 365.69 136.488C363.096 137.8 358.5 139.5 355 139.5C357.346 139.635 362.74 139.888 362.74 139.888C362.74 139.888 371.118 141.153 393.737 142.749L403 143.388C403 143.388 404.392 147.55 404.99 152.5C406.977 168.934 404.99 198.388 404.99 198.388C404.99 198.388 415.18 202.548 415.47 202.138C415.76 201.728 415.98 187.998 415.97 171.638C415.95 155.278 416.17 141.208 416.44 140.388C418.609 141.306 421.4 142.272 424.534 143.072C426.043 143.456 427.631 143.803 429.267 144.086C429.461 144.12 429.655 144.152 429.849 144.184C433.864 144.838 438.535 145.421 443.94 144.388C446.313 143.934 448.309 143.391 449.888 142.693C453.283 141.192 455.404 139.611 457.5 137C458.566 135.671 459.402 134.538 460.522 132.89C463.766 128.119 465.25 124.95 467.5 119.5C470.14 113.104 471.863 106.551 472.517 102.506C473.202 98.2703 472.459 90.4194 470.99 86.3878C471 94 467.408 101.123 467.408 101.123C467.408 101.123 465.714 105.493 464.84 107.268C462.88 111.228 459.53 115.938 456.94 118.358C454.46 120.668 450.641 123.488 448.44 124.618C446.24 125.758 441.96 127.148 438.94 127.708Z" fill="#AAB6BC"/>
<path fill-rule="evenodd" clip-rule="evenodd" d="M431.163 128.222C434.063 128.273 436.822 128.096 438.94 127.708C441.96 127.148 446.24 125.758 448.44 124.618C450.641 123.488 454.46 120.668 456.94 118.358C459.53 115.938 462.88 111.228 464.84 107.268C465.714 105.493 467.408 101.123 467.408 101.123C467.408 101.123 471 94 470.99 86.3878C469.964 82.9053 467.15 76.9278 465.12 73.9178C463.1 70.9078 459.641 66.6878 457.44 64.5278C455.24 62.3778 452.09 59.5678 450.44 58.2778C448.79 56.9878 444.29 54.8078 440.44 53.4378C435.51 51.6678 431.37 50.9278 426.44 50.9278C422.59 50.9278 417.75 51.4778 415.68 52.1578C412.53 53.1878 412.03 53.7178 412.63 55.3878C413.021 56.4878 413.26 58.8478 413.14 60.6378C413.03 62.4278 412.34 65.3478 411.6 67.1378C410.86 68.9278 408.61 72.0778 406.6 74.1378C404.59 76.1978 402.38 77.7378 401.69 77.5578C401 77.3678 400.17 75.2378 399.83 72.8078C399.49 70.3778 398.43 65.9178 397.46 62.8878C396.49 59.8578 394.78 55.8178 393.66 53.8878C392.54 51.9578 389.78 47.9778 387.53 45.0378C385.28 42.0878 381.19 38.0078 378.44 35.9578C375.69 33.9078 370.52 30.6078 366.94 28.6178C363.361 26.6178 357.29 23.7978 353.44 22.3378C349.59 20.8778 342.611 19.0578 337.94 18.2878C333.27 17.5278 327.861 16.9578 325.94 17.0278C324.01 17.0978 318.171 17.5478 312.94 18.0178C307.71 18.4878 300.18 19.7778 296.19 20.8778C292.2 21.9878 286.35 24.0478 283.19 25.4578C280.03 26.8678 274.51 29.9678 270.94 32.3378C267.37 34.7178 262.08 39.5178 259.2 43.0178C256.31 46.5178 252.63 52.0878 251.02 55.3878C249.4 58.6878 247.13 64.9878 245.97 69.3878C244.81 73.7878 243.66 77.6078 243.42 77.8878C243.17 78.1678 241.16 77.1478 238.96 75.6378C236.75 74.1278 234.18 71.6478 233.24 70.1378C232.31 68.6278 231.53 65.5878 231.52 63.3878C231.5 61.1878 231.82 57.6978 232.22 55.6378L232.94 51.8878C218.67 50.7278 216.33 50.9978 210.44 52.9378C205.97 54.4078 201.09 57.0378 196.94 60.2278C193.37 62.9778 189.64 66.1578 188.67 67.3078C187.69 68.4478 185.48 71.1966 183.72 73.8878L183.287 74.5502C182.843 75.2278 182.424 75.8678 182.027 76.4818L181.859 76.7434C178.735 81.598 176.621 86.8368 175.5 92.5C179.163 105.117 179.182 105.145 182.159 109.513C182.839 110.511 183.673 111.735 184.74 113.388C186.213 115.667 192.532 120.262 198.44 123.118C202.266 124.967 205.8 126.148 208.69 126.768C211.58 127.378 216.98 127.878 220.69 127.878C224.4 127.868 229.69 127.278 232.44 126.548C235.19 125.828 239.85 123.918 242.8 122.318C244.809 121.218 247.733 119.1 250.357 116.902C251.261 116.137 252.114 115.372 252.86 114.648C253.825 113.709 254.808 112.702 255.727 111.721C258.411 108.665 260.599 105.309 262.12 101.888L265.02 95.3878C276.29 107.008 282.22 111.958 285.46 113.888C289.29 116.158 295.23 118.348 302.4 120.108C308.93 121.728 316.3 122.848 320.44 122.868C324.29 122.888 331.27 122.238 335.94 121.418C340.611 120.608 348.04 118.538 352.44 116.818C356.84 115.098 362.24 112.458 364.44 110.938C366.641 109.428 372.778 104.398 374.69 102.538C374.926 102.28 381.199 97.1781 381.5 97C381.5 97 385.404 104.586 387.444 107.195L389.26 109.258C391.453 111.75 395.201 115.029 398.567 117.48C399.215 117.945 399.844 118.375 400.44 118.758C404.29 121.238 409.921 124.108 412.94 125.158C415.011 125.878 418.416 126.682 421.68 127.262C423.159 127.516 424.627 127.731 425.94 127.878L425.94 127.888C426.693 127.973 427.456 128.042 428.221 128.095L428.336 128.103C429.282 128.166 430.23 128.206 431.163 128.222Z" fill="#FEF8EB"/>
<path d="M374.94 328.888C375.49 327.788 377.18 326.228 378.69 325.428C380.2 324.628 382.23 323.948 383.19 323.928C384.15 323.908 386.09 324.898 387.5 326.138C389.16 327.588 390.25 329.798 390.59 332.388C391.04 335.828 390.72 336.778 388.28 339.188C385.62 341.808 385.17 341.918 381.19 340.938C378.74 340.328 376.3 338.938 375.43 337.638C374.6 336.398 373.93 334.378 373.93 333.138C373.94 331.898 374.39 329.988 374.94 328.888Z" fill="#FEF8EB"/>
<path fill-rule="evenodd" clip-rule="evenodd" d="M378.69 325.428C377.18 326.228 375.49 327.788 374.94 328.888C374.39 329.988 373.94 331.898 373.93 333.138C373.93 334.378 374.6 336.398 375.43 337.638C376.3 338.938 378.74 340.328 381.19 340.938C385.17 341.918 385.62 341.808 388.28 339.188C390.72 336.778 391.04 335.828 390.59 332.388C390.25 329.798 389.16 327.588 387.5 326.138C386.09 324.898 384.15 323.908 383.19 323.928C382.23 323.948 380.2 324.628 378.69 325.428ZM499.94 218.258C496.92 218.968 492.64 220.118 490.44 220.838C488.24 221.548 483.31 223.768 479.49 225.758C475.55 227.818 469.9 231.988 466.46 235.388C463.13 238.688 458.32 244.318 455.78 247.888C453.24 251.458 449.56 257.538 447.6 261.388C445.65 265.238 443.12 272.328 441.99 277.138C440.48 283.608 439.94 289.278 439.94 298.888C439.94 307.998 440.55 314.958 441.99 322.138C443.12 327.778 445.64 337.118 447.6 342.888C449.56 348.658 452.24 355.528 453.55 358.138C454.87 360.748 456.11 362.778 456.31 362.638C456.521 362.498 456.33 359.908 455.89 356.888C455.45 353.868 455.05 344.978 455.01 337.138C454.97 329.298 455.41 319.398 455.99 315.138C456.56 310.878 458.33 303.118 459.93 297.888C461.52 292.658 463.78 286.138 464.95 283.388C466.12 280.638 469.18 274.808 471.76 270.438C474.38 265.988 480.18 258.568 484.94 253.578C489.91 248.378 496.35 242.878 500.44 240.348C504.29 237.968 511.04 234.788 515.44 233.288C522.22 230.968 525.041 230.558 533.94 230.598C541.71 230.628 547.171 231.318 554.94 233.218C560.71 234.638 569.151 237.168 573.69 238.838C578.23 240.518 582.171 241.658 582.44 241.388C582.71 241.118 578.55 237.988 573.19 234.448C567.831 230.908 560.521 226.658 556.94 225.008C553.36 223.348 546.84 221.008 542.44 219.808C536.331 218.138 531.01 217.538 519.94 217.298C510.63 217.098 503.47 217.448 499.94 218.258ZM221.44 265.328C220.89 265.538 219.2 265.978 217.69 266.298C216.18 266.628 213.25 268.398 211.19 270.238C209.13 272.078 206.46 275.788 205.25 278.488C204.05 281.178 202.74 285.408 202.33 287.888L201.6 292.388C210 284.928 214.01 282.348 215.94 281.838C217.87 281.338 225.85 280.808 233.68 280.658C244.26 280.458 247.92 280.068 247.93 279.138C247.94 278.448 246.48 276.268 244.69 274.298C242.9 272.328 239.19 269.628 236.44 268.308C233.69 266.988 229.42 265.688 226.94 265.428C224.46 265.158 221.99 265.118 221.44 265.328ZM377.75 267.818C376.26 268.238 373.79 269.278 372.25 270.118C370.7 270.958 367.65 273.618 365.46 276.018L361.49 280.388C390.201 281.288 395.34 281.838 397.94 283.038C399.86 283.928 404.14 286.708 407.44 289.198C410.74 291.698 413.55 293.658 413.69 293.568C413.82 293.468 413.24 291.368 412.39 288.888C411.54 286.408 409.4 282.178 407.64 279.488C405.88 276.788 402.64 273.368 400.44 271.888C398.24 270.418 394.86 268.678 392.94 268.028C391.02 267.388 387.42 266.898 384.94 266.958C382.46 267.018 379.23 267.408 377.75 267.818ZM224.94 319.478C222.46 320.888 219.59 322.798 218.54 323.718C217.5 324.638 215.76 327.408 214.68 329.888C213.3 333.058 212.74 336.458 212.81 341.388C212.86 345.238 213.37 349.958 213.94 351.888C214.52 353.818 215.65 356.398 216.46 357.638C217.27 358.878 219.85 360.958 222.19 362.278C224.53 363.588 228.8 364.938 231.69 365.278C235.62 365.738 237.86 365.448 240.59 364.138C242.6 363.178 245.9 360.588 247.94 358.388C250.72 355.368 251.94 352.908 252.88 348.388C253.61 344.848 253.84 340.338 253.43 337.388C253.05 334.638 251.98 330.588 251.04 328.388C250.1 326.188 247.78 323.198 245.89 321.738C243.99 320.278 240.64 318.588 238.44 317.988C238.301 317.95 238.167 317.912 238.033 317.875C237.947 317.85 237.862 317.826 237.776 317.802L237.751 317.794L237.623 317.757L237.53 317.731L237.511 317.725L237.48 317.716L237.415 317.698C235.664 317.193 234.095 316.741 231.94 316.908C229.069 317.13 227.456 318.047 225.022 319.431L224.94 319.478ZM378.94 318.798C377.56 319.208 375.09 320.318 373.44 321.278C371.79 322.228 369.43 324.558 368.19 326.448C366.95 328.338 365.42 332.028 364.79 334.638C364.16 337.248 363.891 341.638 364.18 344.388C364.47 347.138 365.77 351.818 367.07 354.788C368.38 357.768 370.9 361.478 372.69 363.038C374.48 364.608 377.63 366.168 379.69 366.518C381.75 366.858 385.24 366.878 387.44 366.558C389.64 366.238 392.56 365.118 393.94 364.088C395.31 363.048 397.82 360.448 399.51 358.298C401.2 356.148 403.19 351.908 403.92 348.888C405.13 343.858 405.06 342.788 403.09 336.388C401.831 332.308 399.54 327.718 397.61 325.388C395.78 323.188 392.63 320.598 390.61 319.638C388.59 318.678 385.7 317.928 384.19 317.978C382.68 318.018 380.31 318.388 378.94 318.798ZM279.94 359.128C276.37 360.408 271.19 363.068 268.44 365.048C265.69 367.028 262.85 369.458 262.13 370.458C260.94 372.098 261.04 372.198 263.13 371.538C264.4 371.138 269.83 369.928 275.19 368.848C280.55 367.768 287.53 366.908 290.69 366.928C293.85 366.948 298.92 367.558 301.94 368.288C304.96 369.018 309.24 370.388 311.44 371.318C313.64 372.248 316.9 374.108 318.69 375.448C320.48 376.788 322.28 377.658 322.69 377.378C323.1 377.098 322.76 375.688 321.94 374.248C321.12 372.808 317.85 369.208 314.69 366.258C310.63 362.458 307.4 360.428 303.69 359.308C300.8 358.438 295.74 357.518 292.44 357.268C287.84 356.918 284.93 357.348 279.94 359.128ZM265.94 403.738C262.92 404.688 258.75 406.468 256.69 407.678C254.63 408.898 252.95 410.228 252.96 410.638C252.97 411.048 255.33 410.998 258.21 410.528C261.09 410.048 268.62 409.918 274.94 410.228C281.26 410.548 288.69 411.428 291.44 412.188C294.19 412.958 299.08 414.888 302.3 416.488C305.53 418.078 310.19 421.408 312.67 423.888L317.17 428.388C313.87 419.868 311.79 415.698 310.43 413.638C309.06 411.578 305.8 408.538 303.19 406.888C300.58 405.238 296.3 403.438 293.69 402.888C291.08 402.338 285 401.908 280.19 401.938C274.8 401.978 269.33 402.658 265.94 403.738ZM248.44 438.468C247.89 438.608 245.75 438.988 243.69 439.308C241.63 439.628 240.12 440.228 240.33 440.638C240.55 441.048 243.36 441.708 246.58 442.108C249.8 442.498 255.37 443.838 258.94 445.068C262.51 446.298 268.7 449.458 272.69 452.098C276.68 454.728 282.53 459.358 285.69 462.368C288.85 465.388 291.67 467.628 291.94 467.338C292.21 467.058 291.37 464.698 290.07 462.108C288.76 459.508 286.51 455.878 285.07 454.028C283.62 452.168 279.74 448.878 276.44 446.708C273.14 444.538 267.51 441.908 263.94 440.878C260.37 439.838 255.64 438.818 253.44 438.608C251.24 438.388 248.99 438.328 248.44 438.468ZM220.92 463.638C220.92 464.048 223.05 466.048 225.67 468.078C228.3 470.108 232.96 474.378 236.04 477.578C239.13 480.778 243.57 486.088 245.92 489.388C250.04 495.168 250.17 495.258 249.54 491.888C249.18 489.968 247.91 486.368 246.72 483.888C245.52 481.408 242.24 477.138 239.41 474.388C236.59 471.638 231.5 467.928 228.11 466.138C224.72 464.348 221.71 462.888 221.44 462.888C221.17 462.888 220.93 463.228 220.92 463.638ZM220 332C219.92 330.94 221.41 328.718 222.42 327.698C223.62 326.508 225.261 325.176 227.5 325C229.532 324.84 231.51 325.6 232.5 326.5C233.68 327.55 234.71 332.06 234.5 334C234.22 336.72 231.24 340 228 340C226.04 340 223.275 339.976 221.5 338C220.117 336.46 220.054 333.932 220.02 332.573L220.017 332.444L220.017 332.435L220.014 332.329L220.013 332.29C220.012 332.27 220.012 332.25 220.011 332.23C220.008 332.145 220.005 332.068 220 332Z" fill="#483E4B"/>
<path d="M222.42 327.698C221.41 328.718 219.92 330.94 220 332C220.005 332.068 220.008 332.145 220.011 332.23C220.012 332.262 220.013 332.295 220.014 332.329L220.017 332.435L220.017 332.444L220.02 332.573C220.054 333.932 220.117 336.46 221.5 338C223.275 339.976 226.04 340 228 340C231.24 340 234.22 336.72 234.5 334C234.71 332.06 233.68 327.55 232.5 326.5C231.51 325.6 229.532 324.84 227.5 325C225.261 325.176 223.62 326.508 222.42 327.698Z" fill="#FEF8EB"/>
<path fill-rule="evenodd" clip-rule="evenodd" d="M528.451 191.398C538.75 191.678 543.42 192.308 550.951 194.438C556.17 195.908 562.701 198.118 565.451 199.338C568.201 200.558 573.551 203.538 577.341 205.968C579.947 207.639 581.532 208.989 583.377 210.56C584.214 211.273 585.105 212.032 586.17 212.888C587.22 213.731 588.244 214.523 589.229 215.281L589.65 215.605C592.301 217.643 594.652 219.451 596.44 221.388C597.684 222.734 598.906 223.904 600.184 225.127L600.369 225.304C601.646 226.527 602.982 227.813 604.451 229.388C609.395 234.69 613.63 239.978 616.3 243.678C618.96 247.368 622.4 252.868 623.93 255.888C625.451 258.918 628.111 265.778 629.831 271.138C631.541 276.508 633.491 283.928 634.151 287.638C635.081 292.868 635.09 295.968 634.17 301.388C633.451 305.618 631.4 311.558 628.99 316.388C626.79 320.788 622.161 328.668 618.701 333.888C615.231 339.118 608.651 348.118 604.07 353.888C602.14 356.319 600.925 357.936 599.909 359.303C599.764 359.498 599.622 359.69 599.484 359.876C598.288 361.489 597.282 362.845 595.5 365C593.942 366.884 592.788 368.227 591.693 369.494L591.226 370.033C589.46 372.073 587.717 374.086 584.51 378.068C579.041 384.848 565.041 402.088 553.391 416.388C541.74 430.688 530.12 444.308 527.57 446.638C525.031 448.978 520.81 451.958 518.201 453.248C515.581 454.548 510.97 456.408 507.95 457.378C504.25 458.568 500.48 459.008 496.45 458.728C492.36 458.438 488.1 457.198 483.08 454.848C477.78 452.358 474.11 449.708 470 445.388C466.86 442.088 461.66 434.888 458.44 429.388C455.23 423.888 450.49 416.238 447.92 412.388C445.34 408.538 442.27 403.478 441.09 401.138C439.91 398.808 438.83 396.898 438.7 396.898C438.56 396.908 438.37 400.838 438.29 405.648C438.2 410.458 437.5 416.418 436.74 418.888C435.97 421.368 432.45 427.428 428.9 432.368C425.35 437.308 418.85 444.908 414.45 449.258C409.88 453.778 403.23 459.068 398.95 461.568C394.82 463.978 388.52 466.808 384.95 467.848C381.37 468.888 374.96 469.998 370.7 470.318C365.81 470.678 362.95 470.518 362.95 469.888C362.95 469.338 364.93 465.858 367.36 462.138C369.78 458.428 372.71 453.258 373.86 450.638C375.49 446.918 376.76 445.568 379.7 444.388C381.76 443.568 385.02 442.048 386.95 441.028C388.87 439.998 391.21 437.868 392.14 436.278C393.08 434.688 394.1 431.588 394.43 429.388C394.95 425.808 394.58 424.818 390.83 419.888C388.53 416.868 384.69 412.708 382.3 410.638C379.9 408.578 377.05 406.888 375.95 406.888C374.23 406.888 373.78 407.938 372.81 414.138C372.19 418.128 371.05 423.188 370.27 425.388C369.5 427.588 366.32 433.888 363.22 439.388C360.11 444.888 352.97 455.688 347.35 463.388C339.35 474.358 335.47 478.688 329.47 483.388C325.713 486.333 322.309 488.701 317.919 491.754C317.392 492.121 316.849 492.499 316.29 492.888C304.492 501.107 290.22 510.378 285.33 512.818C279.88 515.528 271.43 518.538 263.45 520.608C252.42 523.478 247.48 524.158 230.95 525.138C213.52 526.168 210.33 526.098 200.95 524.528C195.17 523.558 186.62 521.698 181.95 520.388C177.27 519.078 169.62 516.418 164.95 514.468C160.27 512.528 151.05 507.728 144.45 503.818C137.85 499.898 127.84 493.248 111.97 481.388L116.64 478.388C119.21 476.738 123.37 473.048 125.88 470.178C128.39 467.308 132.16 462.128 134.26 458.678C136.35 455.218 138.38 451.138 138.76 449.618C139.14 448.088 140.2 446.868 140.2 446.868C140.2 446.868 142.658 448.484 144.2 449.568C145.479 450.466 146.454 451.249 147.408 452.015C148.532 452.917 149.628 453.797 151.16 454.818C155.089 457.434 159.37 459.728 161.73 460.678C164.08 461.618 168.285 463.272 172.7 463.448C177.568 463.641 181.92 462.148 184.95 461.098C187.97 460.048 193.6 457.638 197.45 455.738C201.3 453.838 206.36 451.068 208.7 449.588C211.03 448.108 214.8 444.528 217.07 441.638C219.33 438.758 222.99 432.788 225.19 428.388C227.39 423.988 229.99 418.368 230.95 415.888C231.92 413.418 235.02 406.778 237.83 401.138C242.12 392.538 242.95 390.008 242.95 385.388C242.95 381.658 242.54 379.888 241.7 379.888C241.01 379.888 237.97 380.788 234.95 381.898C231.92 382.998 228.68 384.908 227.73 386.148C226.79 387.378 224.02 392.438 221.57 397.388C219.12 402.338 216.06 409.428 214.78 413.138C213.5 416.858 212.11 419.888 211.7 419.888C211.28 419.888 208.98 417.528 206.57 414.638C204.16 411.758 200.85 406.688 199.21 403.388C197.57 400.088 194.81 393.118 193.08 387.888C191.34 382.668 189.42 374.788 188.8 370.388C188.18 365.988 187.48 349.338 187.24 333.388C187 317.258 187.27 299.288 187.86 292.888C188.43 286.568 189.63 277.788 190.52 273.388C191.42 268.988 193.72 261.788 195.63 257.388C197.59 252.918 201.62 246.308 204.77 242.388C207.88 238.538 213.58 232.218 217.44 228.348C223.51 222.248 226.45 220.298 239.45 213.708C247.7 209.528 258.16 204.938 262.7 203.498C267.23 202.068 276.91 199.948 284.2 198.788C296.2 196.878 299.98 196.748 324.45 197.318C345.81 197.808 353.01 198.328 358.95 199.798C363.07 200.828 372.3 203.278 379.45 205.248C388.07 207.618 396.15 210.708 403.45 214.398C409.5 217.468 416.65 221.868 419.34 224.178C423.91 228.118 424.26 228.748 424.65 233.888C424.88 236.918 425.16 240.178 425.26 241.138C425.36 242.108 425.67 242.878 425.95 242.848C426.22 242.828 427.02 242.038 427.73 241.098C428.44 240.158 430.99 236.468 433.4 232.888C435.81 229.318 440.63 223.668 444.11 220.348C447.6 217.028 451.8 213.328 453.45 212.128C455.1 210.928 458.654 208.441 462.2 206.428C466.865 203.78 470.107 202.476 474.617 200.662L475.2 200.428C476.375 199.953 477.59 199.421 478.858 198.863L479.113 198.751C483.019 197.032 487.431 195.091 492.7 193.838C497.209 192.766 500.439 192.467 504.373 192.103C505.042 192.041 505.731 191.978 506.45 191.908C511.4 191.428 521.3 191.198 528.451 191.398ZM499.94 218.258C496.92 218.968 492.64 220.118 490.44 220.838C488.24 221.548 483.31 223.768 479.49 225.758C475.55 227.818 469.9 231.988 466.46 235.388C463.13 238.688 458.32 244.318 455.78 247.888C453.24 251.458 449.56 257.538 447.6 261.388C445.65 265.238 443.12 272.328 441.99 277.138C440.48 283.608 439.94 289.278 439.94 298.888C439.94 307.998 440.55 314.958 441.99 322.138C443.12 327.778 445.64 337.118 447.6 342.888C449.56 348.658 452.24 355.528 453.55 358.138C454.87 360.748 456.11 362.778 456.31 362.638C456.521 362.498 456.33 359.908 455.89 356.888C455.45 353.868 455.05 344.978 455.01 337.138C454.97 329.298 455.41 319.398 455.99 315.138C456.56 310.878 458.33 303.118 459.93 297.888C461.52 292.658 463.78 286.138 464.95 283.388C466.12 280.638 469.18 274.808 471.76 270.438C474.38 265.988 480.18 258.568 484.94 253.578C489.91 248.378 496.35 242.878 500.44 240.348C504.29 237.968 511.04 234.788 515.44 233.288C522.22 230.968 525.041 230.558 533.94 230.598C541.71 230.628 547.171 231.318 554.94 233.218C560.71 234.638 569.151 237.168 573.69 238.838C578.23 240.518 582.171 241.658 582.44 241.388C582.71 241.118 578.55 237.988 573.19 234.448C567.831 230.908 560.521 226.658 556.94 225.008C553.36 223.348 546.84 221.008 542.44 219.808C536.331 218.138 531.01 217.538 519.94 217.298C510.63 217.098 503.47 217.448 499.94 218.258ZM221.44 265.328C220.89 265.538 219.2 265.978 217.69 266.298C216.18 266.628 213.25 268.398 211.19 270.238C209.13 272.078 206.46 275.788 205.25 278.488C204.05 281.178 202.74 285.408 202.33 287.888L201.6 292.388C210 284.928 214.01 282.348 215.94 281.838C217.87 281.338 225.85 280.808 233.68 280.658C244.26 280.458 247.92 280.068 247.93 279.138C247.94 278.448 246.48 276.268 244.69 274.298C242.9 272.328 239.19 269.628 236.44 268.308C233.69 266.988 229.42 265.688 226.94 265.428C224.46 265.158 221.99 265.118 221.44 265.328ZM377.75 267.818C376.26 268.238 373.79 269.278 372.25 270.118C370.7 270.958 367.65 273.618 365.46 276.018L361.49 280.388C390.201 281.288 395.34 281.838 397.94 283.038C399.86 283.928 404.14 286.708 407.44 289.198C410.74 291.698 413.55 293.658 413.69 293.568C413.82 293.468 413.24 291.368 412.39 288.888C411.54 286.408 409.4 282.178 407.64 279.488C405.88 276.788 402.64 273.368 400.44 271.888C398.24 270.418 394.86 268.678 392.94 268.028C391.02 267.388 387.42 266.898 384.94 266.958C382.46 267.018 379.23 267.408 377.75 267.818ZM224.94 319.478C222.46 320.888 219.59 322.798 218.54 323.718C217.5 324.638 215.76 327.408 214.68 329.888C213.3 333.058 212.74 336.458 212.81 341.388C212.86 345.238 213.37 349.958 213.94 351.888C214.52 353.818 215.65 356.398 216.46 357.638C217.27 358.878 219.85 360.958 222.19 362.278C224.53 363.588 228.8 364.938 231.69 365.278C235.62 365.738 237.86 365.448 240.59 364.138C242.6 363.178 245.9 360.588 247.94 358.388C250.72 355.368 251.94 352.908 252.88 348.388C253.61 344.848 253.84 340.338 253.43 337.388C253.05 334.638 251.98 330.588 251.04 328.388C250.1 326.188 247.78 323.198 245.89 321.738C243.99 320.278 240.64 318.588 238.44 317.988C238.301 317.95 238.167 317.912 238.033 317.875C237.947 317.85 237.862 317.826 237.776 317.802L237.751 317.794L237.623 317.757L237.53 317.731L237.511 317.725L237.48 317.716L237.415 317.698C235.664 317.193 234.095 316.741 231.94 316.908C229.069 317.13 227.456 318.047 225.022 319.431L224.94 319.478ZM378.94 318.798C377.56 319.208 375.09 320.318 373.44 321.278C371.79 322.228 369.43 324.558 368.19 326.448C366.95 328.338 365.42 332.028 364.79 334.638C364.16 337.248 363.891 341.638 364.18 344.388C364.47 347.138 365.77 351.818 367.07 354.788C368.38 357.768 370.9 361.478 372.69 363.038C374.48 364.608 377.63 366.168 379.69 366.518C381.75 366.858 385.24 366.878 387.44 366.558C389.64 366.238 392.56 365.118 393.94 364.088C395.31 363.048 397.82 360.448 399.51 358.298C401.2 356.148 403.19 351.908 403.92 348.888C405.13 343.858 405.06 342.788 403.09 336.388C401.831 332.308 399.54 327.718 397.61 325.388C395.78 323.188 392.63 320.598 390.61 319.638C388.59 318.678 385.7 317.928 384.19 317.978C382.68 318.018 380.31 318.388 378.94 318.798ZM279.94 359.128C276.37 360.408 271.19 363.068 268.44 365.048C265.69 367.028 262.85 369.458 262.13 370.458C260.94 372.098 261.04 372.198 263.13 371.538C264.4 371.138 269.83 369.928 275.19 368.848C280.55 367.768 287.53 366.908 290.69 366.928C293.85 366.948 298.92 367.558 301.94 368.288C304.96 369.018 309.24 370.388 311.44 371.318C313.64 372.248 316.9 374.108 318.69 375.448C320.48 376.788 322.28 377.658 322.69 377.378C323.1 377.098 322.76 375.688 321.94 374.248C321.12 372.808 317.85 369.208 314.69 366.258C310.63 362.458 307.4 360.428 303.69 359.308C300.8 358.438 295.74 357.518 292.44 357.268C287.84 356.918 284.93 357.348 279.94 359.128ZM265.94 403.738C262.92 404.688 258.75 406.468 256.69 407.678C254.63 408.898 252.95 410.228 252.96 410.638C252.97 411.048 255.33 410.998 258.21 410.528C261.09 410.048 268.62 409.918 274.94 410.228C281.26 410.548 288.69 411.428 291.44 412.188C294.19 412.958 299.08 414.888 302.3 416.488C305.53 418.078 310.19 421.408 312.67 423.888L317.17 428.388C313.87 419.868 311.79 415.698 310.43 413.638C309.06 411.578 305.8 408.538 303.19 406.888C300.58 405.238 296.3 403.438 293.69 402.888C291.08 402.338 285 401.908 280.19 401.938C274.8 401.978 269.33 402.658 265.94 403.738ZM248.44 438.468C247.89 438.608 245.75 438.988 243.69 439.308C241.63 439.628 240.12 440.228 240.33 440.638C240.55 441.048 243.36 441.708 246.58 442.108C249.8 442.498 255.37 443.838 258.94 445.068C262.51 446.298 268.7 449.458 272.69 452.098C276.68 454.728 282.53 459.358 285.69 462.368C288.85 465.388 291.67 467.628 291.94 467.338C292.21 467.058 291.37 464.698 290.07 462.108C288.76 459.508 286.51 455.878 285.07 454.028C283.62 452.168 279.74 448.878 276.44 446.708C273.14 444.538 267.51 441.908 263.94 440.878C260.37 439.838 255.64 438.818 253.44 438.608C251.24 438.388 248.99 438.328 248.44 438.468ZM220.92 463.638C220.92 464.048 223.05 466.048 225.67 468.078C228.3 470.108 232.96 474.378 236.04 477.578C239.13 480.778 243.57 486.088 245.92 489.388C250.04 495.168 250.17 495.258 249.54 491.888C249.18 489.968 247.91 486.368 246.72 483.888C245.52 481.408 242.24 477.138 239.41 474.388C236.59 471.638 231.5 467.928 228.11 466.138C224.72 464.348 221.71 462.888 221.44 462.888C221.17 462.888 220.93 463.228 220.92 463.638Z" fill="#AAB6BC"/>
</svg>
